<svg xmlns:vectornator="http://vectornator.io" xmlns:xlink="http://www.w3.org/1999/xlink" xmlns="http://www.w3.org/2000/svg" style="fill-rule:evenodd;clip-rule:evenodd;stroke-linecap:round;stroke-linejoin:round;" xml:space="preserve" version="1.1" viewBox="0 0 2048 2048">
    <metadata>
    <vectornator:setting key="CMYKEnabledKey" value="0"/>
    <vectornator:setting key="Units" value="Points"/>
    <vectornator:setting key="GridSpacing" value="36"/>
    <vectornator:setting key="RulersVisible" value="1"/>
    <vectornator:setting key="DynamicGuides" value="1"/>
    </metadata>
    <defs/>
    <g id="document" vectornator:layerName="document">
    <path d="M1275.41+530.876L1015.13+218.897L761.437+537.994L1275.41+530.876ZM1631.52+152.068L1059.48+159.991L1350.4+509.735L1631.52+152.068ZM1379.61+599.785L1091.47+1693.24L1988.2+591.356L1379.61+599.785ZM1034.58+1623.68L1304.34+600.827L734.454+608.721L1034.58+1623.68ZM610.9+540.079L49.6185+547.854L324.396+198.313L610.9+540.079ZM50.5927+618.193L977.495+1694.82L659.187+609.763L50.5927+618.193ZM1987.23+521.016L1702.87+179.22L1425.94+528.791L1987.23+521.016ZM967.009+161.272L394.974+169.195L685.891+518.939L967.009+161.272Z" opacity="1" fill="#79bd9a"/>
    </g>
</svg>